<?xml version="1.0" encoding="UTF-8"?>
<svg xmlns="http://www.w3.org/2000/svg" xmlns:xlink="http://www.w3.org/1999/xlink" width="40px" height="40px" viewBox="0 0 40 40" version="1.1" style="padding: 2px;">
<path style=" stroke:none;fill-rule:nonzero;fill:rgb(0%,0%,0%);fill-opacity:1;" d="M 0 0 C 13.199219 0 26.398438 0 40 0 C 40 13.199219 40 26.398438 40 40 C 26.800781 40 13.601562 40 0 40 C 0 26.800781 0 13.601562 0 0 Z M 0 0 "/>
<path style=" stroke:none;fill-rule:nonzero;fill:rgb(94.509804%,94.509804%,95.294118%);fill-opacity:1;" d="M 11.921875 12.320312 C 12.621094 12.523438 13.3125 12.757812 14.003906 12.996094 C 14.203125 13.0625 14.402344 13.132812 14.597656 13.199219 C 15.21875 13.414062 15.839844 13.628906 16.460938 13.847656 C 17.140625 14.089844 17.824219 14.316406 18.507812 14.539062 C 19.066406 14.722656 19.617188 14.910156 20.15625 15.136719 C 20.339844 15.210938 20.339844 15.210938 20.621094 15.28125 C 21.042969 15.539062 21.164062 15.957031 21.359375 16.398438 C 22.640625 19.296875 22.640625 19.296875 24.800781 21.441406 C 25.046875 21.496094 25.175781 21.480469 25.441406 21.441406 C 25.980469 20.996094 26.066406 20.285156 26.144531 19.621094 C 26.175781 19.269531 26.191406 18.914062 26.203125 18.558594 C 26.207031 18.484375 26.210938 18.40625 26.214844 18.324219 C 26.222656 18.136719 26.230469 17.949219 26.238281 17.761719 C 26.542969 18.140625 26.542969 18.140625 26.664062 18.300781 C 26.910156 18.609375 27.152344 18.789062 27.492188 18.992188 C 27.75 19.179688 27.894531 19.285156 28 19.585938 C 28.027344 19.867188 28.027344 20.128906 28.019531 20.410156 C 28.019531 20.566406 28.019531 20.566406 28.019531 20.722656 C 28.019531 21.007812 28.015625 21.289062 28.007812 21.574219 C 28.003906 21.871094 28.003906 22.167969 28.003906 22.464844 C 28 23.023438 27.992188 23.585938 27.984375 24.144531 C 27.972656 24.785156 27.96875 25.421875 27.964844 26.0625 C 27.957031 27.375 27.941406 28.6875 27.921875 30 C 27.667969 29.761719 27.492188 29.484375 27.304688 29.195312 C 27.273438 29.144531 27.238281 29.09375 27.203125 29.039062 C 26.960938 28.660156 26.960938 28.660156 26.960938 28.480469 C 26.902344 28.507812 26.84375 28.535156 26.78125 28.566406 C 25.476562 29.160156 24.058594 29.554688 22.640625 29.761719 C 22.585938 29.769531 22.535156 29.777344 22.480469 29.785156 C 21.601562 29.914062 20.726562 29.9375 19.84375 29.941406 C 19.6875 29.941406 19.6875 29.941406 19.527344 29.941406 C 18.894531 29.941406 18.300781 29.890625 17.679688 29.761719 C 17.617188 29.746094 17.554688 29.734375 17.488281 29.722656 C 15.667969 29.328125 14.140625 28.480469 12.800781 27.199219 C 12.75 27.15625 12.703125 27.113281 12.65625 27.070312 C 11.8125 26.289062 11.269531 25.269531 10.800781 24.238281 C 10.769531 24.171875 10.734375 24.105469 10.703125 24.035156 C 10.277344 23.0625 9.992188 21.910156 9.988281 20.847656 C 9.984375 20.792969 9.984375 20.738281 9.984375 20.679688 C 9.984375 20.5 9.984375 20.320312 9.984375 20.140625 C 9.984375 20.078125 9.984375 20.015625 9.984375 19.953125 C 9.992188 17.449219 10.5 15.078125 12.160156 13.121094 C 12.472656 13.246094 12.644531 13.441406 12.863281 13.691406 C 12.898438 13.730469 12.933594 13.769531 12.972656 13.808594 C 13.074219 13.925781 13.175781 14.042969 13.28125 14.160156 C 13.328125 14.21875 13.378906 14.273438 13.429688 14.332031 C 13.519531 14.433594 13.609375 14.535156 13.695312 14.636719 C 13.804688 14.761719 13.921875 14.882812 14.039062 15.007812 C 14.105469 15.078125 14.171875 15.148438 14.238281 15.21875 C 14.300781 15.285156 14.367188 15.347656 14.429688 15.417969 C 14.558594 15.601562 14.558594 15.601562 14.550781 15.761719 C 14.472656 15.9375 14.386719 16.113281 14.296875 16.285156 C 13.398438 18.050781 13.304688 20.292969 13.898438 22.183594 C 14.476562 23.90625 15.511719 25.3125 17.152344 26.152344 C 19.085938 27.085938 21.453125 26.890625 23.4375 26.207031 C 23.761719 26.089844 24.082031 25.972656 24.398438 25.839844 C 24.019531 24.667969 22.167969 23.738281 21.109375 23.183594 C 20.796875 23.023438 20.476562 22.871094 20.160156 22.71875 C 20.09375 22.6875 20.027344 22.65625 19.960938 22.625 C 19.335938 22.328125 18.648438 22.089844 17.972656 21.941406 C 17.761719 21.839844 17.761719 21.839844 17.65625 21.597656 C 17.621094 21.449219 17.621094 21.449219 17.589844 21.296875 C 17.566406 21.183594 17.539062 21.074219 17.511719 20.964844 C 17.5 20.910156 17.488281 20.855469 17.476562 20.796875 C 17.226562 19.707031 16.789062 18.640625 16.191406 17.695312 C 16.085938 17.527344 15.992188 17.355469 15.898438 17.179688 C 15.425781 16.320312 14.789062 15.546875 14.160156 14.800781 C 14.089844 14.714844 14.019531 14.628906 13.945312 14.542969 C 13.4375 13.929688 12.894531 13.363281 12.328125 12.804688 C 12.273438 12.753906 12.21875 12.703125 12.167969 12.648438 C 12.117188 12.601562 12.070312 12.554688 12.023438 12.507812 C 11.921875 12.398438 11.921875 12.398438 11.921875 12.320312 Z M 11.921875 12.320312 "/>
<path style=" stroke:none;fill-rule:nonzero;fill:rgb(94.117647%,94.117647%,94.901961%);fill-opacity:1;" d="M 19.714844 9.660156 C 19.871094 9.660156 19.871094 9.660156 20.03125 9.660156 C 21.140625 9.671875 22.1875 9.75 23.269531 10.011719 C 23.347656 10.027344 23.347656 10.027344 23.429688 10.046875 C 24.941406 10.40625 26.148438 11.015625 27.359375 12 C 27.3125 12.273438 27.226562 12.402344 27.03125 12.589844 C 26.976562 12.640625 26.925781 12.691406 26.875 12.742188 C 26.820312 12.792969 26.765625 12.847656 26.710938 12.898438 C 26.601562 13.007812 26.488281 13.117188 26.378906 13.222656 C 26.300781 13.300781 26.300781 13.300781 26.222656 13.378906 C 26.015625 13.585938 25.824219 13.804688 25.632812 14.027344 C 25.449219 14.242188 25.246094 14.441406 25.039062 14.640625 C 24.78125 14.523438 24.558594 14.371094 24.324219 14.207031 C 23.480469 13.613281 22.621094 13.234375 21.601562 13.039062 C 21.574219 13.011719 21.546875 12.988281 21.519531 12.960938 C 19.960938 12.710938 18.386719 12.824219 16.960938 13.519531 C 16.933594 13.546875 16.90625 13.574219 16.878906 13.601562 C 16.332031 13.566406 15.835938 13.367188 15.324219 13.183594 C 15.234375 13.152344 15.140625 13.121094 15.046875 13.085938 C 14.347656 12.839844 13.652344 12.585938 12.960938 12.320312 C 13.972656 10.96875 15.871094 10.320312 17.441406 9.921875 C 17.511719 9.898438 17.585938 9.878906 17.664062 9.859375 C 18.355469 9.679688 19.003906 9.648438 19.714844 9.660156 Z M 19.714844 9.660156 "/>
</svg>
